# xmcd
#
# Track frame offsets: 
#        150
#        18263
#        42178
#        65359
#        88805
#        113281
#        150771
#        175773
#        199271
#        217446
#
# Disc length: 3343 seconds
#
# Revision: 0
# Processed by: cddbd v1.5.2PL0 Copyright (c) Steve Scherf et al.
# Submitted via: ExactAudioCopy v1.0b3
#
DISCID=7b0d0d0a
DTITLE=Various Artist - Trieu Doa Hong Cho Nguoi Phu Nu VN CD1
DYEAR=1900
DGENRE=
TTITLE0=Mai Linh - Huyen thoai nguoi con gai
TTITLE1=Ha Vy - Muoi thuong
TTITLE2=Y Lan - Que huong bai hoc dau cho con
TTITLE3=Thuy Hang - LK Chi toi
TTITLE4=Truong Vu - Tu do em buon
TTITLE5=Bang Tam - Cai co
TTITLE6=Dai Trang - Trang sang vuon che
TTITLE7=Khanh Ngan - De tra loi mot cau hoi
TTITLE8=Thanh Truc - Soi toc
TTITLE9=Nhu Mai - Tuong nhu con nguoi yeu
EXTD=
EXTT0=
EXTT1=
EXTT2=
EXTT3=
EXTT4=
EXTT5=
EXTT6=
EXTT7=
EXTT8=
EXTT9=
PLAYORDER=
